HIERARCHY
ROOT hip
{
	OFFSET 0.000000 0.000000 0.000000 
	CHANNELS 6 Xposition Yposition Zposition Xrotation Zrotation Yrotation
	JOINT abdomen
	{
		OFFSET 0.000000 3.402643 0.000000 
		CHANNELS 3 Xrotation Zrotation Yrotation
		JOINT chest
		{
			OFFSET 0.000000 8.438565 -0.680529 
			CHANNELS 3 Xrotation Zrotation Yrotation
			JOINT neck
			{
				OFFSET 0.000000 10.207942 -0.272212 
				CHANNELS 3 Xrotation Zrotation Yrotation
				JOINT head
				{
					OFFSET 0.000000 3.130431 0.000000 
					CHANNELS 3 Xrotation Zrotation Yrotation
					End Site
					{
						OFFSET 0.000000 3.130435 0.000000 
					}
				}
			}
			JOINT lCollar
			{
				OFFSET 3.470700 6.669187 -0.816635 
				CHANNELS 3 Yrotation Zrotation Xrotation
				JOINT lShldr
				{
					OFFSET 3.198488 0.000000 0.000000 
					CHANNELS 3 Zrotation Yrotation Xrotation
					JOINT lForeArm
					{
						OFFSET 10.139888 0.000000 0.000000 
						CHANNELS 3 Yrotation Zrotation Xrotation
						JOINT lHand
						{
							OFFSET 8.370511 0.000000 0.000000 
							CHANNELS 3 Zrotation Yrotation Xrotation
							End Site
							{
								OFFSET 4.083176 0.000000 0.000000 
							}
						}
					}
				}
			}
			JOINT rCollar
			{
				OFFSET -3.470700 6.669187 -0.816635 
				CHANNELS 3 Yrotation Zrotation Xrotation
				JOINT rShldr
				{
					OFFSET -3.198488 0.000000 0.000000 
					CHANNELS 3 Zrotation Yrotation Xrotation
					JOINT rForeArm
					{
						OFFSET -10.139888 0.000000 0.000000 
						CHANNELS 3 Yrotation Zrotation Xrotation
						JOINT rHand
						{
							OFFSET -8.370511 0.000000 0.000000 
							CHANNELS 3 Zrotation Yrotation Xrotation
							End Site
							{
								OFFSET -4.083176 0.000000 0.000000 
							}
						}
					}
				}
			}
		}
	}
	JOINT lThigh
	{
		OFFSET 5.308129 -1.633274 1.361059 
		CHANNELS 3 Xrotation Zrotation Yrotation
		JOINT lShin
		{
			OFFSET -2.041588 -20.007561 0.000000 
			CHANNELS 3 Xrotation Zrotation Yrotation
			JOINT lFoot
			{
				OFFSET 0.000000 -19.190928 -1.224953 
				CHANNELS 3 Xrotation Yrotation Zrotation
				End Site
				{
					OFFSET 0.000000 -2.449906 4.627600 
				}
			}
		}
	}
	JOINT rThigh
	{
		OFFSET -5.308129 -1.633274 1.361059 
		CHANNELS 3 Xrotation Zrotation Yrotation
		JOINT rShin
		{
			OFFSET 2.041588 -20.007561 0.000000 
			CHANNELS 3 Xrotation Zrotation Yrotation
			JOINT rFoot
			{
				OFFSET 0.000000 -19.190928 -1.224953 
				CHANNELS 3 Xrotation Yrotation Zrotation
				End Site
				{
					OFFSET 0.000000 -2.449906 4.627600 
				}
			}
		}
	}
}
MOTION
Frames: 18
Frame Time: 0.033333
-0.283254 49.965485 -3.963109 1.320943 -2.829499 -2.425188 0.000000 0.000000 0.000000 3.512877 -0.466882 5.117335 13.332537 0.029194 4.814458 26.647194 -2.948916 0.821236 1.440169 -2.851165 3.763791 -60.971836 1.373882 7.723917 -79.319649 0.494911 -32.093288 -11.502107 18.089996 -5.204835 10.598006 6.959137 3.533565 61.135418 25.031351 48.520039 69.289192 0.329575 -0.200374 -14.832797 -5.033249 -3.324688 -8.675548 6.596415 3.387617 12.259334 -2.685493 12.300404 -4.398477 0.066129 -1.572392 -0.869106 -7.057223 -4.430663 -2.230703 2.155934 -17.349504 4.765786 0.254489 6.561350 
-0.070717 49.947994 -4.543555 1.645849 -3.102226 -2.621277 0.000000 0.000000 0.000000 3.749880 -0.301302 5.576249 13.131825 0.194607 4.873085 27.026794 -3.056547 0.449621 1.640326 -2.480422 3.967282 -61.422745 -0.141158 9.898590 -81.091042 1.150634 -27.577034 -15.931467 17.050318 -5.630702 10.950573 6.758951 3.739906 61.925758 28.777203 51.417004 70.758957 -0.031961 -5.683405 -12.986828 -5.719004 -3.277072 -9.736322 6.767592 3.388165 12.248919 -2.889742 12.545290 -3.742653 0.047902 -1.037572 -1.649883 -7.310521 -4.587369 -2.462860 2.681320 -15.671758 5.654217 0.254223 6.284235 
0.131321 49.927090 -5.179420 2.183275 -3.647846 -2.847840 0.000000 0.000000 0.000000 3.804216 0.145699 5.937531 12.977069 0.554620 4.883056 26.733454 -3.535153 0.077976 1.904287 -1.756411 3.994096 -62.254333 -1.757403 12.285582 -82.735336 1.718280 -24.421213 -17.648052 15.772900 -5.626668 11.415847 6.734184 3.705430 62.464493 31.965210 53.663914 72.048859 -0.323491 -10.230129 -11.126774 -6.605011 -3.248018 -11.126710 7.222132 3.495233 12.712493 -3.117320 12.444391 -3.432079 -0.007536 -0.489089 -2.674621 -7.455589 -4.894018 -2.633708 3.601143 -13.567137 6.721123 0.297302 5.293100 
0.257133 49.899063 -5.781982 2.460150 -4.144361 -3.094093 0.000000 0.000000 0.000000 3.915350 0.533976 6.191683 12.944117 0.603101 5.068695 26.428589 -3.349586 -0.215618 2.193219 -1.244267 4.060815 -63.022495 -3.182435 14.660424 -84.370956 2.211683 -21.907818 -17.350063 14.696600 -5.404533 11.894806 6.573409 3.715878 63.669827 34.209949 55.125565 73.043938 -0.806202 -11.654999 -9.133069 -7.480506 -3.239118 -12.238964 7.651262 3.543051 12.846898 -3.174561 12.897626 -2.792316 -0.012380 -0.131546 -3.240378 -7.240589 -4.602970 -2.523620 3.783876 -11.603568 6.701595 0.257678 4.790728 
0.349303 49.902111 -6.407027 2.307523 -4.476154 -3.037155 0.000000 0.000000 0.000000 4.304734 0.776504 6.318968 13.133573 0.778358 4.932113 25.918501 -3.798711 -0.450820 2.077950 -0.652243 4.421381 -64.025803 -4.726314 16.677441 -85.620461 2.567226 -20.522207 -16.370831 14.653500 -5.295588 12.108137 6.878138 4.012986 64.084335 35.813690 56.139679 74.126633 -1.579535 -12.239998 -8.809290 -8.075040 -3.210215 -12.417591 7.848528 3.515691 12.036470 -3.172170 12.699303 -1.676457 0.014600 0.247347 -2.850362 -7.367875 -5.186162 -2.176497 4.568505 -9.564100 5.917507 0.220555 4.526549 
0.367497 49.937977 -7.010309 2.302111 -4.924741 -3.038793 0.000000 0.000000 0.000000 4.478698 1.116266 6.300102 13.022953 0.719820 5.078582 25.962936 -3.495917 -0.577482 1.983523 -0.301589 4.577521 -64.524223 -5.990124 18.356989 -86.891060 2.755451 -20.619049 -13.285732 15.383824 -5.084067 12.144805 7.031467 4.118697 64.759834 36.672832 56.471264 75.081841 -2.496793 -9.637612 -9.788186 -12.424174 -2.858807 -12.460516 8.349339 3.640763 10.445661 -3.203975 12.687672 -0.163854 0.007298 0.629791 -1.971696 -7.015170 -5.627381 -1.284764 4.845153 -10.437733 4.096699 0.109692 4.704884 
0.332595 49.980690 -7.599880 2.315208 -5.335741 -2.737314 0.000000 0.000000 0.000000 4.466994 1.407987 6.105505 12.975656 0.875678 4.912728 25.859865 -3.798623 -0.597629 1.763541 0.366274 4.568152 -65.208572 -7.224489 19.563461 -86.961945 2.516718 -23.020443 -10.751232 15.826289 -4.856678 12.001499 7.675583 4.030606 64.461815 36.806240 55.967747 75.194603 -3.051552 -7.483828 -9.677692 -16.952250 -2.551567 -12.271561 8.815278 3.904746 8.367393 -3.419480 12.279488 1.202231 0.016246 1.223126 -1.239246 -6.602738 -6.297688 2.333645 4.950822 -12.932370 1.554581 0.071369 6.727210 
0.256158 49.938503 -8.176075 2.309636 -4.850157 -2.136967 0.000000 0.000000 0.000000 4.241218 1.010632 5.684602 12.833140 0.642594 4.443737 25.769859 -3.915838 -0.548266 1.276886 0.333852 4.422750 -65.279282 -8.192080 20.264429 -86.675903 2.051966 -26.429222 -7.695876 15.856191 -4.524628 11.632555 7.537013 3.918749 64.251938 35.993034 53.977203 75.121567 -2.808020 -8.558845 -8.368593 -16.039034 -2.751498 -12.141345 8.373439 3.698488 6.296119 -3.642737 12.063050 2.498772 0.036503 1.670343 -1.435256 -7.015800 -7.493103 9.175182 4.927129 -13.819345 -1.403772 -0.127983 8.866864 
0.132692 49.862087 -8.710568 1.566991 -4.616986 -1.754164 0.000000 0.000000 0.000000 4.460425 0.787389 5.488835 13.051327 0.603903 4.121379 25.576168 -4.013482 -0.558010 0.935203 0.428594 4.638123 -64.882729 -9.308873 21.157358 -85.913483 1.570333 -29.769787 -5.852586 15.952424 -4.325623 11.389307 7.676601 4.154506 63.689949 34.384518 50.732594 74.980782 -2.488123 -8.457313 -4.783372 -12.627831 -3.252146 -11.786043 8.358527 3.867674 5.692065 -3.866699 11.717780 3.285632 0.052152 1.671206 -2.703748 -7.317319 -8.428376 19.643480 4.831367 -12.714375 -5.058777 -0.498900 10.606167 
-0.006786 49.762047 -9.276656 1.107203 -4.021625 -1.723420 0.000000 0.000000 0.000000 4.429017 0.369488 5.332172 12.849673 0.253293 3.984422 26.031200 -3.808432 -0.528774 0.925668 -0.180103 4.608825 -63.660751 -10.416898 22.040764 -85.074547 1.221801 -32.053036 -3.530809 16.541105 -4.096394 11.370359 7.503024 4.172648 63.021233 32.858845 47.939533 74.405807 -2.179220 -7.616953 -1.821808 -9.109150 -3.505047 -11.884362 8.193104 3.922889 5.600892 -4.255379 11.271670 3.763904 0.055358 1.174317 -3.124669 -7.810385 -8.823366 27.438158 4.393476 -7.773170 -6.745847 -0.666838 10.787116 
-0.186250 49.668766 -9.885603 0.935807 -3.747571 -2.065075 0.000000 0.000000 0.000000 4.133387 0.233335 5.400465 12.670176 0.058446 4.072274 26.129419 -3.603339 -0.567742 1.081396 -0.701679 4.325835 -62.443447 -11.134960 22.445724 -83.851517 0.946160 -33.422413 1.645339 16.735626 -3.494085 11.549689 7.617438 3.911649 61.795345 30.836098 44.940517 73.882385 -1.892036 -6.705777 0.527271 -7.491567 -3.593063 -12.190171 8.539204 4.239491 5.436562 -4.646115 10.598426 4.674026 0.029520 0.493246 -2.616649 -7.584140 -8.538582 31.525387 3.963233 -3.155643 -7.184192 -0.626655 9.653538 
-0.376807 49.533947 -10.594719 0.938087 -3.337023 -2.358049 0.000000 0.000000 0.000000 3.783992 0.048602 5.517584 12.355521 0.029228 3.925786 26.404661 -3.739937 -0.724302 1.043601 -1.346598 3.994730 -61.763508 -11.511020 20.827076 -81.736649 0.508214 -34.730412 4.311196 17.927374 -3.157598 11.773937 8.274277 3.577035 59.589275 27.717857 40.945023 74.265915 -1.682963 -6.334872 1.765078 -7.356926 -3.626753 -12.962161 8.676567 4.238593 5.515110 -4.900218 10.534844 5.194757 0.021768 0.171431 -1.991341 -7.269339 -8.532108 34.025139 3.689959 -2.298462 -7.309526 -0.613328 9.288617 
-0.593025 49.379757 -11.409317 1.093702 -2.818957 -2.776803 0.000000 0.000000 0.000000 3.396935 -0.116645 5.517586 12.222392 -0.204604 3.896494 25.968533 -3.612928 -0.802882 1.194690 -2.028356 3.615154 -61.502029 -11.424259 17.707138 -78.712463 -0.001632 -35.598751 5.139627 18.671082 -3.019702 11.914827 8.518377 3.220121 57.973656 24.527927 36.979576 73.956848 -1.488904 -4.333381 2.654758 -7.694241 -3.677641 -13.826182 8.787680 4.227479 5.169020 -5.207518 10.836165 6.081932 -0.029224 -0.418869 -0.781753 -6.930917 -8.407990 34.278759 3.410648 -2.923396 -8.307166 -0.705050 9.454720 
-0.823694 49.194096 -12.349909 1.356432 -2.271341 -3.420699 0.000000 0.000000 0.000000 3.063402 -0.233289 5.517612 12.176517 -0.428603 4.072371 25.453314 -3.417697 -0.724282 1.114764 -2.713924 3.294647 -61.157745 -10.665150 13.822786 -75.545631 -0.404217 -36.142658 6.255645 17.710554 -2.908244 11.970950 8.630274 2.913204 56.497620 21.374781 33.208485 73.070091 -1.118047 -1.608576 2.889314 -8.022666 -3.694336 -14.841569 8.875576 4.126122 4.750647 -5.384730 11.257058 7.040782 -0.058836 -1.059311 0.682174 -6.584836 -8.609533 32.729027 3.307597 -5.934688 -10.306517 -0.984265 10.614329 
-1.057488 48.972698 -13.440104 1.881995 -1.431728 -4.181065 0.000000 0.000000 0.000000 2.899676 -0.525011 5.390846 11.573787 -0.642793 4.209157 25.254576 -3.193219 -0.538451 0.952027 -3.292979 3.120396 -60.882191 -10.574326 8.857409 -72.440239 -0.713095 -37.501511 6.621475 18.119686 -2.844776 11.763073 8.382022 2.807366 54.802517 19.313869 29.443220 71.855743 -0.439057 0.486872 3.161215 -8.915705 -3.745318 -16.027050 8.793733 3.828583 3.786568 -5.551416 12.137125 8.213533 -0.140185 -1.872091 2.224799 -6.431580 -8.611387 28.976336 3.257617 -8.865750 -13.724615 -1.359862 11.082630 
-1.378172 48.713467 -14.647590 2.167038 -0.836289 -5.274014 0.000000 0.000000 0.000000 2.950534 -0.612562 5.342013 11.629005 -0.885894 4.531765 24.391617 -2.783154 -0.342342 0.945362 -3.850434 3.151523 -60.557640 -10.413629 3.409775 -68.745384 -0.475939 -36.983009 6.421534 18.457726 -2.852270 11.840894 8.677640 2.847049 52.766911 17.090693 25.579330 69.755577 0.454636 1.610666 2.631710 -9.006142 -3.723381 -17.016142 9.137280 3.763297 2.693318 -5.655270 13.402487 9.517283 -0.237362 -2.710596 4.265052 -5.808111 -8.198258 22.623550 3.434509 -11.768278 -17.629585 -1.627506 10.315231 
-1.731195 48.464882 -15.982527 2.644181 -0.776548 -6.289674 0.000000 0.000000 0.000000 3.135901 -0.204251 5.146487 11.400377 -0.457635 4.394625 24.944628 -3.808526 -0.342988 0.733362 -4.095695 3.280376 -59.632599 -10.138946 -1.362404 -64.986931 -0.505571 -39.484982 6.192659 17.736584 -2.922284 11.774341 9.771548 2.865906 50.242882 15.358013 21.516840 67.133583 1.651135 1.783579 2.184607 -10.020732 -3.747744 -18.150824 9.968559 3.594562 1.571590 -5.476640 13.648778 10.832098 -0.326769 -3.497200 5.269186 -4.586627 -7.312343 16.615044 3.501263 -15.736817 -20.094389 -1.697548 9.432675 
-2.112879 48.280632 -17.421518 3.180474 -1.327939 -6.994147 0.000000 0.000000 0.000000 3.619750 0.671555 4.707394 11.155111 0.311703 4.091896 25.606726 -4.472552 -0.392482 0.403031 -3.673117 3.689670 -58.615528 -10.386052 -4.945946 -61.382454 -1.172146 -47.042496 8.616145 14.609550 -2.837394 11.592263 11.567414 3.047820 47.314537 13.799067 16.823744 63.981655 2.364972 4.941343 3.288663 -11.763635 -3.867748 -18.698803 11.150809 3.407679 -0.837391 -4.962696 12.979596 11.900791 -0.460391 -4.351353 1.590659 -3.162894 -5.911672 19.087696 3.482743 -19.034092 -21.247293 -1.763643 9.289660 
